<svg xmlns="http://www.w3.org/2000/svg" version="1.1" xmlns:xlink="http://www.w3.org/1999/xlink" xmlns:svgjs="http://svgjs.dev/svgjs" width="1000" height="1000"><style>
    #light-icon {
      display: inline;
    }
    #dark-icon {
      display: none;
    }

    @media (prefers-color-scheme: dark) {
      #light-icon {
        display: none;
      }
      #dark-icon {
        display: inline;
      }
    }
  </style><g id="light-icon"><svg xmlns="http://www.w3.org/2000/svg" version="1.1" xmlns:xlink="http://www.w3.org/1999/xlink" xmlns:svgjs="http://svgjs.dev/svgjs" width="1000" height="1000"><g><g transform="matrix(3.90625,0,0,3.90625,0,0)"><svg xmlns="http://www.w3.org/2000/svg" version="1.1" xmlns:xlink="http://www.w3.org/1999/xlink" xmlns:svgjs="http://svgjs.dev/svgjs" width="256" height="256"><svg xmlns="http://www.w3.org/2000/svg" xmlns:xlink="http://www.w3.org/1999/xlink" width="256" height="256">
	<path fill="#31539B" d="M51.606 116.907C53.3745 117.278 56.5694 118.071 57.6002 119.636C57.5302 120.221 57.4352 120.193 56.9924 120.544C55.9802 120.825 54.9544 121.117 53.906 121.221C53.0583 121.304 52.4491 121.215 51.7629 120.664C50.9713 119.455 51.3577 118.22 51.606 116.907Z"></path>
	<path fill="#31539B" d="M115.492 49.5222C115.79 49.5017 116.106 49.4684 116.403 49.4921C116.851 49.5277 117.151 49.6211 117.398 50.0057C118.253 51.3384 117.805 54.0091 117.391 55.4511C117.191 56.1488 117.046 56.435 116.423 56.7936C115.481 54.8962 113.466 52.5602 113.733 50.3612C114.264 49.7462 114.72 49.738 115.492 49.5222Z"></path>
	<path fill="#31539B" d="M202.44 116.74C202.602 116.74 202.763 116.742 202.923 116.767C203.395 116.839 203.725 117.122 203.994 117.504C204.417 118.106 204.652 118.871 204.493 119.606C204.361 120.219 203.939 120.775 203.38 121.061C202.419 121.552 201.29 121.146 200.323 120.88C199.392 120.658 198.529 120.548 197.935 119.749C198.456 118.319 201.091 117.411 202.44 116.74Z"></path>
	<path fill="#31539B" d="M125.609 48.7354C126.322 48.7098 127.126 48.6474 127.818 48.851C128.464 49.0408 128.98 49.4131 129.291 50.0198C130.126 51.6445 129.111 54.1807 128.665 55.8009C128.38 56.0021 128.095 56.0579 127.762 56.1363C127.566 56.027 127.399 55.9344 127.247 55.7659C126.014 54.3983 125.438 50.5254 125.609 48.7354Z"></path>
	<path fill="#31539B" d="M137.747 49.14C139.496 49.4255 141.222 49.7423 142.949 50.1411C142.01 52.1683 140.963 54.1475 139.944 56.1358C139.594 57.2587 139.048 58.3447 138.575 59.4213C138.518 55.9488 138.196 52.5789 137.747 49.14Z"></path>
	<path fill="#31539B" d="M54.0524 104.138C55.3927 104.214 56.8291 105.073 57.9802 105.737C58.9807 106.315 60.7694 107.295 61.0744 108.435L60.606 108.934C58.7662 108.791 56.2991 109.321 54.6085 108.86C54.1202 108.727 53.8095 108.492 53.5717 108.049C53.0311 107.04 53.773 105.184 54.0524 104.138Z"></path>
	<path fill="#31539B" d="M105.04 52.0259C105.658 52.3669 105.84 52.5606 106.039 53.2547C106.505 54.8767 107.386 59.2676 106.617 60.716L106.239 60.6834L105.527 59.6679Q103.264 56.5708 101.154 53.368C102.469 53.0046 103.756 52.4867 105.04 52.0259Z"></path>
	<path fill="#31539B" d="M200.574 103.944C200.643 103.969 200.715 103.988 200.781 104.02C202.051 104.623 202.503 107.73 202.808 108.953L196.937 108.948C196.283 109 195.809 109.066 195.218 108.709L195.134 108.216C196.012 106.377 198.807 104.875 200.574 103.944Z"></path>
	<path fill="#31539B" d="M65.6329 81.652C65.7136 81.686 65.7938 81.7213 65.8717 81.7612C67.578 82.635 70.4553 85.9989 71.0183 87.8339C71.085 88.0514 70.9656 88.1338 70.8606 88.3231L69.9434 88.0706C67.6202 87.2844 65.2606 86.596 62.9154 85.8783C63.6753 84.4017 64.511 82.8837 65.6329 81.652Z"></path>
	<path fill="#31539B" d="M150.312 52.1455Q152.543 52.6192 154.766 53.1283C153.592 55.3878 152.088 57.5217 150.714 59.6662C150.195 60.7202 149.473 61.6974 148.825 62.6761C149.112 59.8317 149.172 54.6539 150.312 52.1455Z"></path>
	<path fill="#31539B" d="M58.8128 92.3265C60.999 92.9961 64.4158 95.9311 65.5945 97.8694L65.4398 98.3477L64.9381 98.3627C62.3895 97.5839 59.6621 97.3462 57.0271 97.0025C57.5269 95.3778 58.0153 93.8337 58.8128 92.3265Z"></path>
	<path fill="#31539B" d="M94.4579 56.4706C94.5618 56.5737 94.7798 56.7364 94.8467 56.8563C95.5092 58.0453 95.6952 60.6816 96.0278 62.0655C96.4765 63.933 97.0574 65.6223 97.8678 67.3631C96.978 66.497 96.1894 65.528 95.3823 64.5854C94.2745 63.3096 91.4238 61.3332 90.8714 60.0476C90.7162 59.6864 90.6734 59.3409 90.8088 58.9749C91.2619 57.7505 93.3479 57.0235 94.4579 56.4706Z"></path>
	<path fill="#31539B" d="M181.24 71.5825C181.298 71.5949 181.357 71.6051 181.414 71.6198C182.831 71.9837 184.313 74.6065 185.04 75.8264C182.919 76.7739 180.884 77.7727 178.924 79.0245L176.003 80.9573C177.907 77.9174 179.593 74.7659 181.24 71.5825Z"></path>
	<path fill="#31539B" d="M196.497 91.9506C197.631 92.5972 198.769 96.5056 199.347 97.7882C197.055 97.7816 194.743 97.712 192.466 98.0138C191.567 98.0352 190.584 98.2636 189.687 98.3869C192.063 96.3642 194.178 94.0426 196.497 91.9506Z"></path>
	<path fill="#31539B" d="M73.3003 71.6461C74.1342 71.7722 74.756 72.6221 75.2729 73.2342C76.3901 74.5574 78.664 77.1981 78.518 78.9736L78.1732 79.1957L77.1511 78.8413C74.9075 77.612 72.6602 76.52 70.2865 75.5625L73.3003 71.6461Z"></path>
	<path fill="#31539B" d="M172.051 62.8765C172.249 62.9376 172.392 63.0106 172.564 63.1279C173.839 63.9951 175.231 64.6838 175.527 66.276C175.066 68.0436 172.378 69.5199 170.993 70.6733C169.923 71.6259 168.793 72.5024 167.669 73.3892C169.564 70.0144 170.516 66.3931 172.051 62.8765Z"></path>
	<path fill="#31539B" d="M161.281 56.8915C162.233 57.1862 163.379 57.4336 164.256 57.9078C164.861 58.2346 165.168 58.6701 165.353 59.3276C165.26 61.178 162.766 62.9485 161.463 64.1426C160.553 65.0355 159.757 66.0696 158.936 67.0452C159.733 63.8256 159.993 59.886 161.281 56.8915Z"></path>
	<path fill="#31539B" d="M82.9943 63.8941C83.6853 64.138 83.8604 64.2432 84.2913 64.8308C85.4894 66.4645 88.4679 71.3827 88.1661 73.2746C87.3976 73.1749 87.0566 72.6803 86.4863 72.1713C84.3684 69.9426 81.9484 68.1375 79.4153 66.4132C80.5856 65.5452 81.7992 64.7281 82.9943 63.8941Z"></path>
	<path fill="#31539B" d="M189.727 81.6233C189.777 81.6308 189.827 81.6332 189.875 81.6459C191.571 82.0943 192.911 85.3224 193.754 86.807C191.659 87.091 189.529 87.314 187.458 87.7412C186.041 88.0868 184.612 88.7209 183.238 89.2273C185.544 86.7973 187.442 84.0408 189.727 81.6233Z"></path>
	<path fill="#31539B" d="M197.015 174.363C197.288 174.412 197.676 174.457 197.926 174.59C198.543 174.915 198.631 175.15 198.829 175.768C198.34 179.041 187.285 189.52 184.275 192.136C167.602 206.623 144.872 214.612 122.759 213.057Q120.987 212.95 119.222 212.769Q117.456 212.588 115.699 212.334Q113.943 212.08 112.198 211.753Q110.454 211.426 108.724 211.027Q106.995 210.628 105.283 210.158Q103.572 209.687 101.882 209.146Q100.191 208.605 98.5249 207.994Q96.8585 207.383 95.219 206.703Q93.5794 206.023 91.9695 205.276Q90.3596 204.529 88.7821 203.715Q87.2047 202.902 85.6624 202.023Q84.1201 201.145 82.6156 200.203Q81.1111 199.261 79.6471 198.258Q78.1831 197.255 76.762 196.191Q75.3409 195.128 73.9652 194.006Q72.5896 192.885 71.2617 191.707C66.6694 187.614 62.6291 183.022 58.6047 178.383C58.2073 177.896 57.6439 177.203 57.4896 176.583C57.3398 175.982 57.4534 175.758 57.7249 175.247L58.3424 175.121C59.0592 175.339 59.5673 175.712 60.0896 176.239C61.9989 178.162 63.6108 180.536 65.3849 182.601Q69.7709 187.609 75.0654 191.644C92.6254 205.297 115.683 213.071 137.995 210.223C152.835 208.329 169.715 201.258 181.195 191.572C187.284 186.435 192.154 180.647 197.015 174.363Z"></path>
	<path fill="#31539B" d="M202.31 178.424C203.192 178.799 204.136 179.076 205.043 179.389C197.052 188.255 189.38 197.171 179.419 203.943Q178.47 204.581 177.505 205.194Q176.54 205.808 175.56 206.398Q174.581 206.988 173.587 207.554Q172.593 208.12 171.586 208.661Q170.578 209.202 169.558 209.718Q168.537 210.234 167.504 210.725Q166.471 211.215 165.427 211.68Q164.382 212.146 163.326 212.585Q162.27 213.024 161.204 213.437Q160.138 213.85 159.061 214.237Q157.985 214.624 156.9 214.984Q155.814 215.344 154.721 215.677Q153.627 216.01 152.525 216.317Q151.423 216.623 150.314 216.902Q149.205 217.181 148.089 217.432Q146.974 217.684 145.853 217.908Q144.731 218.132 143.605 218.328Q142.478 218.524 141.347 218.693Q140.216 218.861 139.081 219.002Q137.946 219.142 136.808 219.255Q135.67 219.368 134.53 219.452Q133.389 219.536 132.247 219.593Q131.105 219.649 129.962 219.677Q128.818 219.706 127.675 219.706Q126.531 219.706 125.388 219.678Q124.245 219.649 123.103 219.593Q121.96 219.537 120.82 219.452Q119.68 219.368 118.542 219.256Q117.404 219.143 116.269 219.003Q115.134 218.862 114.003 218.694Q112.872 218.525 111.745 218.329Q110.618 218.133 109.497 217.909C88.4954 213.855 66.2995 200.318 54.2213 182.478C53.5765 181.59 53.0934 180.683 52.9876 179.58L53.2623 179.32C56.0701 179.854 60.78 186.763 62.9453 189.105C64.6028 190.898 66.4148 192.594 68.2239 194.235C85.6606 210.053 109.761 218.222 133.185 217.058C154.745 215.986 175.831 206.13 191.226 191.101C193.396 188.983 195.556 186.774 197.484 184.433C199.122 182.444 200.578 180.34 202.31 178.424Z"></path>
	<path fill="#31539B" d="M125.679 42.8591C127.914 42.1627 134.976 43.0219 137.694 43.2649C158.435 45.1193 179.44 56.339 192.758 72.3181C211.99 95.3924 214.503 116.151 211.849 145.154L209.419 142.716C209.63 140.455 209.984 138.209 210.163 135.942C211.925 113.582 205.42 90.9694 190.738 73.8577Q189.651 72.6097 188.514 71.4057Q187.378 70.2018 186.195 69.0439Q185.012 67.886 183.784 66.7759Q182.556 65.6658 181.285 64.6053Q180.014 63.5448 178.702 62.5356Q177.39 61.5263 176.039 60.5699Q174.688 59.6135 173.3 58.7114Q171.912 57.8093 170.49 56.963Q169.067 56.1166 167.612 55.3274Q166.157 54.5382 164.672 53.8073Q163.186 53.0764 161.673 52.4049Q160.16 51.7335 158.622 51.1226Q157.083 50.5117 155.522 49.9624Q153.96 49.413 152.378 48.926Q150.796 48.439 149.196 48.0151Q147.596 47.5912 145.98 47.2311C140.671 46.0687 135.351 45.6074 129.943 45.1846C124.707 44.2747 117.496 45.5981 112.322 46.6838Q111.301 46.8992 110.285 47.1393Q109.269 47.3795 108.259 47.6443Q107.25 47.9091 106.247 48.1983Q105.244 48.4875 104.248 48.8011Q103.253 49.1146 102.265 49.4522Q101.277 49.7899 100.298 50.1514Q99.3188 50.513 98.3487 50.8982Q97.3786 51.2835 96.4181 51.6922Q95.4576 52.1009 94.5074 52.5328Q93.5571 52.9648 92.6176 53.4197Q91.6782 53.8746 90.75 54.3522Q89.8219 54.8298 88.9056 55.3298Q87.9894 55.8298 87.0856 56.352Q86.1817 56.8741 85.2909 57.4181Q84.4 57.962 83.5226 58.5275Q82.6452 59.093 81.7818 59.6796Q80.9184 60.2662 80.0696 60.8736Q79.2207 61.481 78.3869 62.1089Q77.553 62.7368 76.7347 63.3848Q75.9163 64.0327 75.114 64.7004Q74.3116 65.3681 73.5257 66.055Q72.7398 66.742 71.9709 67.4479Q71.2019 68.1537 70.4503 68.8781Q69.6988 69.6024 68.965 70.3448Q68.2313 71.0872 67.5158 71.8473Q66.8003 72.6073 66.1035 73.3845Q65.4067 74.1617 64.729 74.9556Q64.0513 75.7495 63.3931 76.5596Q62.7349 77.3697 62.0966 78.1956Q61.4583 79.0215 60.8402 79.8627Q60.2222 80.7038 59.6248 81.5597Q59.0273 82.4157 58.4509 83.2859C56.6047 86.1199 55.1026 89.1451 53.6197 92.1798C45.8099 108.162 43.1487 125.316 46.853 142.793L44.2021 145.396C43.9508 143.544 43.7987 141.664 43.6337 139.802C41.3973 114.565 46.7118 92.2292 63.1609 72.5886C74.0888 59.5404 89.7081 49.3827 106.342 45.4771C112.718 43.9803 119.175 43.4359 125.679 42.8591Z"></path>
	<path fill="#31539B" d="M117.009 39.5722C114.887 40.4526 109.734 40.8208 107.189 41.3166C103.779 41.9809 100.299 43.1383 97.0195 44.2858C63.6757 55.9535 39.6579 90.0613 39.0101 125.207C38.8812 132.197 40.3765 138.891 40.6417 145.798C40.6805 146.807 40.7594 148.185 40.2756 149.095C40.1087 149.409 39.9796 149.39 39.6482 149.503L39.2133 149.226C37.0939 145.993 36.6273 134.734 36.5266 130.468Q36.5017 129.324 36.5051 128.18Q36.5084 127.036 36.54 125.892Q36.5716 124.748 36.6314 123.606Q36.6912 122.463 36.7791 121.322Q36.8671 120.181 36.9832 119.043Q37.0993 117.905 37.2435 116.77Q37.3877 115.635 37.5598 114.504Q37.7319 113.372 37.9319 112.246Q38.1319 111.119 38.3597 109.998Q38.5874 108.877 38.8428 107.761Q39.0981 106.646 39.3809 105.537Q39.6637 104.429 39.9738 103.327Q40.2838 102.226 40.621 101.133Q40.9582 100.039 41.3222 98.9546Q41.6862 97.8699 42.0769 96.7945Q42.4676 95.7191 42.8848 94.6536Q43.3019 93.5882 43.7452 92.5334Q44.1885 91.4786 44.6576 90.435Q45.1268 89.3915 45.6216 88.3598Q46.1164 87.3281 46.6365 86.309Q47.1566 85.2899 47.7017 84.2839Q48.2468 83.2779 48.8166 82.2857Q49.3864 81.2935 49.9805 80.3156Q50.5745 79.3377 51.1926 78.3748Q51.8106 77.4119 52.4522 76.4646Q53.0938 75.5172 53.7586 74.586Q54.4234 73.6548 55.111 72.7402Q55.7985 71.8257 56.5085 70.9284Q57.2184 70.0311 57.9503 69.1516Q58.6821 68.2721 59.4355 67.4109Q60.1888 66.5498 60.9632 65.7075Q61.7376 64.8651 62.5325 64.0422C80.0567 45.7756 104.174 37.0291 129.209 36.5618C152.432 36.1283 175.109 45.9527 191.736 61.9439C207.804 77.3971 218.341 99.6217 218.765 122.063C218.842 126.134 219.232 145.913 216.577 148.522C216.418 148.678 216.202 148.599 215.99 148.591C215.391 147.894 215.307 146.908 215.291 146.02C215.215 142.041 216.633 135.783 216.887 131.224C218.185 107.955 208.98 84.7593 193.591 67.5405C178.22 50.3414 155.571 40.4039 132.708 39.1371C127.367 38.8085 122.317 39.3602 117.009 39.5722Z"></path>
	<defs>
		<linearGradient id="gradient_0" gradientUnits="userSpaceOnUse" x1="141.80563" y1="66.187935" x2="126.11543" y2="189.87025">
			<stop offset="0" stop-color="#064687"></stop>
			<stop offset="1" stop-color="#176CBB"></stop>
		</linearGradient>
	</defs>
	<path fill="url(#gradient_0)" d="M127.355 63.935C129.178 64.1497 130.627 65.02 131.986 66.2137C136.194 69.9118 139.766 74.3602 143.561 78.4677C148.379 83.6838 153.382 88.7419 158.277 93.8877C173.819 110.227 190.155 125.802 205.799 142.04Q217.627 154.531 229.628 166.856C232.777 170.114 235.699 173.766 239.077 176.768Q238.392 176.848 237.705 176.898C233.182 177.208 207.455 177.712 205.119 176.623C200.009 174.242 189.266 161.804 185 157.308Q179.57 151.64 174.067 146.042C165.475 137.316 156.602 128.845 147.913 120.214C141.53 113.873 135.545 107.372 128.778 101.417C126.853 101.584 124.087 103.935 122.692 105.208C116.768 110.617 111.656 117.036 105.975 122.731L57.6876 171.031C55.7009 173.024 53.2409 175.568 50.5279 176.529C46.2496 178.044 38.3741 177.01 33.7181 176.987L17.0191 177.026C29.5881 163.241 42.9527 150.337 56.0633 137.078L98.7476 93.1881Q104.842 87.0139 110.73 80.642C115.709 75.2115 121.033 67.6699 127.355 63.935Z"></path>
</svg></svg></g></g></svg></g><g id="dark-icon"><svg xmlns="http://www.w3.org/2000/svg" version="1.1" xmlns:xlink="http://www.w3.org/1999/xlink" xmlns:svgjs="http://svgjs.dev/svgjs" width="1000" height="1000"><g clip-path="url(#SvgjsClipPath1163)"><rect width="1000" height="1000" fill="#ffffff"></rect><g transform="matrix(3.90625,0,0,3.90625,0,0)"><svg xmlns="http://www.w3.org/2000/svg" version="1.1" xmlns:xlink="http://www.w3.org/1999/xlink" xmlns:svgjs="http://svgjs.dev/svgjs" width="256" height="256"><svg xmlns="http://www.w3.org/2000/svg" xmlns:xlink="http://www.w3.org/1999/xlink" width="256" height="256">
	<path fill="#31539B" d="M51.606 116.907C53.3745 117.278 56.5694 118.071 57.6002 119.636C57.5302 120.221 57.4352 120.193 56.9924 120.544C55.9802 120.825 54.9544 121.117 53.906 121.221C53.0583 121.304 52.4491 121.215 51.7629 120.664C50.9713 119.455 51.3577 118.22 51.606 116.907Z"></path>
	<path fill="#31539B" d="M115.492 49.5222C115.79 49.5017 116.106 49.4684 116.403 49.4921C116.851 49.5277 117.151 49.6211 117.398 50.0057C118.253 51.3384 117.805 54.0091 117.391 55.4511C117.191 56.1488 117.046 56.435 116.423 56.7936C115.481 54.8962 113.466 52.5602 113.733 50.3612C114.264 49.7462 114.72 49.738 115.492 49.5222Z"></path>
	<path fill="#31539B" d="M202.44 116.74C202.602 116.74 202.763 116.742 202.923 116.767C203.395 116.839 203.725 117.122 203.994 117.504C204.417 118.106 204.652 118.871 204.493 119.606C204.361 120.219 203.939 120.775 203.38 121.061C202.419 121.552 201.29 121.146 200.323 120.88C199.392 120.658 198.529 120.548 197.935 119.749C198.456 118.319 201.091 117.411 202.44 116.74Z"></path>
	<path fill="#31539B" d="M125.609 48.7354C126.322 48.7098 127.126 48.6474 127.818 48.851C128.464 49.0408 128.98 49.4131 129.291 50.0198C130.126 51.6445 129.111 54.1807 128.665 55.8009C128.38 56.0021 128.095 56.0579 127.762 56.1363C127.566 56.027 127.399 55.9344 127.247 55.7659C126.014 54.3983 125.438 50.5254 125.609 48.7354Z"></path>
	<path fill="#31539B" d="M137.747 49.14C139.496 49.4255 141.222 49.7423 142.949 50.1411C142.01 52.1683 140.963 54.1475 139.944 56.1358C139.594 57.2587 139.048 58.3447 138.575 59.4213C138.518 55.9488 138.196 52.5789 137.747 49.14Z"></path>
	<path fill="#31539B" d="M54.0524 104.138C55.3927 104.214 56.8291 105.073 57.9802 105.737C58.9807 106.315 60.7694 107.295 61.0744 108.435L60.606 108.934C58.7662 108.791 56.2991 109.321 54.6085 108.86C54.1202 108.727 53.8095 108.492 53.5717 108.049C53.0311 107.04 53.773 105.184 54.0524 104.138Z"></path>
	<path fill="#31539B" d="M105.04 52.0259C105.658 52.3669 105.84 52.5606 106.039 53.2547C106.505 54.8767 107.386 59.2676 106.617 60.716L106.239 60.6834L105.527 59.6679Q103.264 56.5708 101.154 53.368C102.469 53.0046 103.756 52.4867 105.04 52.0259Z"></path>
	<path fill="#31539B" d="M200.574 103.944C200.643 103.969 200.715 103.988 200.781 104.02C202.051 104.623 202.503 107.73 202.808 108.953L196.937 108.948C196.283 109 195.809 109.066 195.218 108.709L195.134 108.216C196.012 106.377 198.807 104.875 200.574 103.944Z"></path>
	<path fill="#31539B" d="M65.6329 81.652C65.7136 81.686 65.7938 81.7213 65.8717 81.7612C67.578 82.635 70.4553 85.9989 71.0183 87.8339C71.085 88.0514 70.9656 88.1338 70.8606 88.3231L69.9434 88.0706C67.6202 87.2844 65.2606 86.596 62.9154 85.8783C63.6753 84.4017 64.511 82.8837 65.6329 81.652Z"></path>
	<path fill="#31539B" d="M150.312 52.1455Q152.543 52.6192 154.766 53.1283C153.592 55.3878 152.088 57.5217 150.714 59.6662C150.195 60.7202 149.473 61.6974 148.825 62.6761C149.112 59.8317 149.172 54.6539 150.312 52.1455Z"></path>
	<path fill="#31539B" d="M58.8128 92.3265C60.999 92.9961 64.4158 95.9311 65.5945 97.8694L65.4398 98.3477L64.9381 98.3627C62.3895 97.5839 59.6621 97.3462 57.0271 97.0025C57.5269 95.3778 58.0153 93.8337 58.8128 92.3265Z"></path>
	<path fill="#31539B" d="M94.4579 56.4706C94.5618 56.5737 94.7798 56.7364 94.8467 56.8563C95.5092 58.0453 95.6952 60.6816 96.0278 62.0655C96.4765 63.933 97.0574 65.6223 97.8678 67.3631C96.978 66.497 96.1894 65.528 95.3823 64.5854C94.2745 63.3096 91.4238 61.3332 90.8714 60.0476C90.7162 59.6864 90.6734 59.3409 90.8088 58.9749C91.2619 57.7505 93.3479 57.0235 94.4579 56.4706Z"></path>
	<path fill="#31539B" d="M181.24 71.5825C181.298 71.5949 181.357 71.6051 181.414 71.6198C182.831 71.9837 184.313 74.6065 185.04 75.8264C182.919 76.7739 180.884 77.7727 178.924 79.0245L176.003 80.9573C177.907 77.9174 179.593 74.7659 181.24 71.5825Z"></path>
	<path fill="#31539B" d="M196.497 91.9506C197.631 92.5972 198.769 96.5056 199.347 97.7882C197.055 97.7816 194.743 97.712 192.466 98.0138C191.567 98.0352 190.584 98.2636 189.687 98.3869C192.063 96.3642 194.178 94.0426 196.497 91.9506Z"></path>
	<path fill="#31539B" d="M73.3003 71.6461C74.1342 71.7722 74.756 72.6221 75.2729 73.2342C76.3901 74.5574 78.664 77.1981 78.518 78.9736L78.1732 79.1957L77.1511 78.8413C74.9075 77.612 72.6602 76.52 70.2865 75.5625L73.3003 71.6461Z"></path>
	<path fill="#31539B" d="M172.051 62.8765C172.249 62.9376 172.392 63.0106 172.564 63.1279C173.839 63.9951 175.231 64.6838 175.527 66.276C175.066 68.0436 172.378 69.5199 170.993 70.6733C169.923 71.6259 168.793 72.5024 167.669 73.3892C169.564 70.0144 170.516 66.3931 172.051 62.8765Z"></path>
	<path fill="#31539B" d="M161.281 56.8915C162.233 57.1862 163.379 57.4336 164.256 57.9078C164.861 58.2346 165.168 58.6701 165.353 59.3276C165.26 61.178 162.766 62.9485 161.463 64.1426C160.553 65.0355 159.757 66.0696 158.936 67.0452C159.733 63.8256 159.993 59.886 161.281 56.8915Z"></path>
	<path fill="#31539B" d="M82.9943 63.8941C83.6853 64.138 83.8604 64.2432 84.2913 64.8308C85.4894 66.4645 88.4679 71.3827 88.1661 73.2746C87.3976 73.1749 87.0566 72.6803 86.4863 72.1713C84.3684 69.9426 81.9484 68.1375 79.4153 66.4132C80.5856 65.5452 81.7992 64.7281 82.9943 63.8941Z"></path>
	<path fill="#31539B" d="M189.727 81.6233C189.777 81.6308 189.827 81.6332 189.875 81.6459C191.571 82.0943 192.911 85.3224 193.754 86.807C191.659 87.091 189.529 87.314 187.458 87.7412C186.041 88.0868 184.612 88.7209 183.238 89.2273C185.544 86.7973 187.442 84.0408 189.727 81.6233Z"></path>
	<path fill="#31539B" d="M197.015 174.363C197.288 174.412 197.676 174.457 197.926 174.59C198.543 174.915 198.631 175.15 198.829 175.768C198.34 179.041 187.285 189.52 184.275 192.136C167.602 206.623 144.872 214.612 122.759 213.057Q120.987 212.95 119.222 212.769Q117.456 212.588 115.699 212.334Q113.943 212.08 112.198 211.753Q110.454 211.426 108.724 211.027Q106.995 210.628 105.283 210.158Q103.572 209.687 101.882 209.146Q100.191 208.605 98.5249 207.994Q96.8585 207.383 95.219 206.703Q93.5794 206.023 91.9695 205.276Q90.3596 204.529 88.7821 203.715Q87.2047 202.902 85.6624 202.023Q84.1201 201.145 82.6156 200.203Q81.1111 199.261 79.6471 198.258Q78.1831 197.255 76.762 196.191Q75.3409 195.128 73.9652 194.006Q72.5896 192.885 71.2617 191.707C66.6694 187.614 62.6291 183.022 58.6047 178.383C58.2073 177.896 57.6439 177.203 57.4896 176.583C57.3398 175.982 57.4534 175.758 57.7249 175.247L58.3424 175.121C59.0592 175.339 59.5673 175.712 60.0896 176.239C61.9989 178.162 63.6108 180.536 65.3849 182.601Q69.7709 187.609 75.0654 191.644C92.6254 205.297 115.683 213.071 137.995 210.223C152.835 208.329 169.715 201.258 181.195 191.572C187.284 186.435 192.154 180.647 197.015 174.363Z"></path>
	<path fill="#31539B" d="M202.31 178.424C203.192 178.799 204.136 179.076 205.043 179.389C197.052 188.255 189.38 197.171 179.419 203.943Q178.47 204.581 177.505 205.194Q176.54 205.808 175.56 206.398Q174.581 206.988 173.587 207.554Q172.593 208.12 171.586 208.661Q170.578 209.202 169.558 209.718Q168.537 210.234 167.504 210.725Q166.471 211.215 165.427 211.68Q164.382 212.146 163.326 212.585Q162.27 213.024 161.204 213.437Q160.138 213.85 159.061 214.237Q157.985 214.624 156.9 214.984Q155.814 215.344 154.721 215.677Q153.627 216.01 152.525 216.317Q151.423 216.623 150.314 216.902Q149.205 217.181 148.089 217.432Q146.974 217.684 145.853 217.908Q144.731 218.132 143.605 218.328Q142.478 218.524 141.347 218.693Q140.216 218.861 139.081 219.002Q137.946 219.142 136.808 219.255Q135.67 219.368 134.53 219.452Q133.389 219.536 132.247 219.593Q131.105 219.649 129.962 219.677Q128.818 219.706 127.675 219.706Q126.531 219.706 125.388 219.678Q124.245 219.649 123.103 219.593Q121.96 219.537 120.82 219.452Q119.68 219.368 118.542 219.256Q117.404 219.143 116.269 219.003Q115.134 218.862 114.003 218.694Q112.872 218.525 111.745 218.329Q110.618 218.133 109.497 217.909C88.4954 213.855 66.2995 200.318 54.2213 182.478C53.5765 181.59 53.0934 180.683 52.9876 179.58L53.2623 179.32C56.0701 179.854 60.78 186.763 62.9453 189.105C64.6028 190.898 66.4148 192.594 68.2239 194.235C85.6606 210.053 109.761 218.222 133.185 217.058C154.745 215.986 175.831 206.13 191.226 191.101C193.396 188.983 195.556 186.774 197.484 184.433C199.122 182.444 200.578 180.34 202.31 178.424Z"></path>
	<path fill="#31539B" d="M125.679 42.8591C127.914 42.1627 134.976 43.0219 137.694 43.2649C158.435 45.1193 179.44 56.339 192.758 72.3181C211.99 95.3924 214.503 116.151 211.849 145.154L209.419 142.716C209.63 140.455 209.984 138.209 210.163 135.942C211.925 113.582 205.42 90.9694 190.738 73.8577Q189.651 72.6097 188.514 71.4057Q187.378 70.2018 186.195 69.0439Q185.012 67.886 183.784 66.7759Q182.556 65.6658 181.285 64.6053Q180.014 63.5448 178.702 62.5356Q177.39 61.5263 176.039 60.5699Q174.688 59.6135 173.3 58.7114Q171.912 57.8093 170.49 56.963Q169.067 56.1166 167.612 55.3274Q166.157 54.5382 164.672 53.8073Q163.186 53.0764 161.673 52.4049Q160.16 51.7335 158.622 51.1226Q157.083 50.5117 155.522 49.9624Q153.96 49.413 152.378 48.926Q150.796 48.439 149.196 48.0151Q147.596 47.5912 145.98 47.2311C140.671 46.0687 135.351 45.6074 129.943 45.1846C124.707 44.2747 117.496 45.5981 112.322 46.6838Q111.301 46.8992 110.285 47.1393Q109.269 47.3795 108.259 47.6443Q107.25 47.9091 106.247 48.1983Q105.244 48.4875 104.248 48.8011Q103.253 49.1146 102.265 49.4522Q101.277 49.7899 100.298 50.1514Q99.3188 50.513 98.3487 50.8982Q97.3786 51.2835 96.4181 51.6922Q95.4576 52.1009 94.5074 52.5328Q93.5571 52.9648 92.6176 53.4197Q91.6782 53.8746 90.75 54.3522Q89.8219 54.8298 88.9056 55.3298Q87.9894 55.8298 87.0856 56.352Q86.1817 56.8741 85.2909 57.4181Q84.4 57.962 83.5226 58.5275Q82.6452 59.093 81.7818 59.6796Q80.9184 60.2662 80.0696 60.8736Q79.2207 61.481 78.3869 62.1089Q77.553 62.7368 76.7347 63.3848Q75.9163 64.0327 75.114 64.7004Q74.3116 65.3681 73.5257 66.055Q72.7398 66.742 71.9709 67.4479Q71.2019 68.1537 70.4503 68.8781Q69.6988 69.6024 68.965 70.3448Q68.2313 71.0872 67.5158 71.8473Q66.8003 72.6073 66.1035 73.3845Q65.4067 74.1617 64.729 74.9556Q64.0513 75.7495 63.3931 76.5596Q62.7349 77.3697 62.0966 78.1956Q61.4583 79.0215 60.8402 79.8627Q60.2222 80.7038 59.6248 81.5597Q59.0273 82.4157 58.4509 83.2859C56.6047 86.1199 55.1026 89.1451 53.6197 92.1798C45.8099 108.162 43.1487 125.316 46.853 142.793L44.2021 145.396C43.9508 143.544 43.7987 141.664 43.6337 139.802C41.3973 114.565 46.7118 92.2292 63.1609 72.5886C74.0888 59.5404 89.7081 49.3827 106.342 45.4771C112.718 43.9803 119.175 43.4359 125.679 42.8591Z"></path>
	<path fill="#31539B" d="M117.009 39.5722C114.887 40.4526 109.734 40.8208 107.189 41.3166C103.779 41.9809 100.299 43.1383 97.0195 44.2858C63.6757 55.9535 39.6579 90.0613 39.0101 125.207C38.8812 132.197 40.3765 138.891 40.6417 145.798C40.6805 146.807 40.7594 148.185 40.2756 149.095C40.1087 149.409 39.9796 149.39 39.6482 149.503L39.2133 149.226C37.0939 145.993 36.6273 134.734 36.5266 130.468Q36.5017 129.324 36.5051 128.18Q36.5084 127.036 36.54 125.892Q36.5716 124.748 36.6314 123.606Q36.6912 122.463 36.7791 121.322Q36.8671 120.181 36.9832 119.043Q37.0993 117.905 37.2435 116.77Q37.3877 115.635 37.5598 114.504Q37.7319 113.372 37.9319 112.246Q38.1319 111.119 38.3597 109.998Q38.5874 108.877 38.8428 107.761Q39.0981 106.646 39.3809 105.537Q39.6637 104.429 39.9738 103.327Q40.2838 102.226 40.621 101.133Q40.9582 100.039 41.3222 98.9546Q41.6862 97.8699 42.0769 96.7945Q42.4676 95.7191 42.8848 94.6536Q43.3019 93.5882 43.7452 92.5334Q44.1885 91.4786 44.6576 90.435Q45.1268 89.3915 45.6216 88.3598Q46.1164 87.3281 46.6365 86.309Q47.1566 85.2899 47.7017 84.2839Q48.2468 83.2779 48.8166 82.2857Q49.3864 81.2935 49.9805 80.3156Q50.5745 79.3377 51.1926 78.3748Q51.8106 77.4119 52.4522 76.4646Q53.0938 75.5172 53.7586 74.586Q54.4234 73.6548 55.111 72.7402Q55.7985 71.8257 56.5085 70.9284Q57.2184 70.0311 57.9503 69.1516Q58.6821 68.2721 59.4355 67.4109Q60.1888 66.5498 60.9632 65.7075Q61.7376 64.8651 62.5325 64.0422C80.0567 45.7756 104.174 37.0291 129.209 36.5618C152.432 36.1283 175.109 45.9527 191.736 61.9439C207.804 77.3971 218.341 99.6217 218.765 122.063C218.842 126.134 219.232 145.913 216.577 148.522C216.418 148.678 216.202 148.599 215.99 148.591C215.391 147.894 215.307 146.908 215.291 146.02C215.215 142.041 216.633 135.783 216.887 131.224C218.185 107.955 208.98 84.7593 193.591 67.5405C178.22 50.3414 155.571 40.4039 132.708 39.1371C127.367 38.8085 122.317 39.3602 117.009 39.5722Z"></path>
	<defs>
		<linearGradient id="gradient_0" gradientUnits="userSpaceOnUse" x1="141.80563" y1="66.187935" x2="126.11543" y2="189.87025">
			<stop offset="0" stop-color="#064687"></stop>
			<stop offset="1" stop-color="#176CBB"></stop>
		</linearGradient>
	<clipPath id="SvgjsClipPath1163"><rect width="1000" height="1000" x="0" y="0" rx="200" ry="200"></rect></clipPath></defs>
	<path fill="url(#gradient_0)" d="M127.355 63.935C129.178 64.1497 130.627 65.02 131.986 66.2137C136.194 69.9118 139.766 74.3602 143.561 78.4677C148.379 83.6838 153.382 88.7419 158.277 93.8877C173.819 110.227 190.155 125.802 205.799 142.04Q217.627 154.531 229.628 166.856C232.777 170.114 235.699 173.766 239.077 176.768Q238.392 176.848 237.705 176.898C233.182 177.208 207.455 177.712 205.119 176.623C200.009 174.242 189.266 161.804 185 157.308Q179.57 151.64 174.067 146.042C165.475 137.316 156.602 128.845 147.913 120.214C141.53 113.873 135.545 107.372 128.778 101.417C126.853 101.584 124.087 103.935 122.692 105.208C116.768 110.617 111.656 117.036 105.975 122.731L57.6876 171.031C55.7009 173.024 53.2409 175.568 50.5279 176.529C46.2496 178.044 38.3741 177.01 33.7181 176.987L17.0191 177.026C29.5881 163.241 42.9527 150.337 56.0633 137.078L98.7476 93.1881Q104.842 87.0139 110.73 80.642C115.709 75.2115 121.033 67.6699 127.355 63.935Z"></path>
</svg></svg></g></g></svg></g></svg>